# AST/ASF file generated using VICON BodyLanguage
# -----------------------------------------------
:version 1.10
:name VICON
:units
  mass 1.0
  length 0.45
  angle deg
:documentation
   .ast/.asf automatically generated from VICON data using
   VICON BodyBuilder and BodyLanguage model FoxedUp or BRILLIANT.MOD
:root
   order TX TY TZ RX RY RZ
   axis XYZ
   position 0 0 0  
   orientation 0 0 0 
:bonedata
  begin
     id 1 
     name lhipjoint
     direction 0.537252 -0.787203 0.302774 
     length 2.29576 
     axis 0 0 0  XYZ
  end
  begin
     id 2 
     name lfemur
     direction 0.34202 -0.939693 0  
     length 7.31114  
     axis 0 0 20  XYZ
    dof rx ry rz
    limits (-160.0 20.0)
           (-70.0 70.0)
           (-60.0 70.0)
  end
  begin
     id 3 
     name ltibia
     direction 0.34202 -0.939693 0   
     length 8.36008   
     axis 0 0 20   XYZ
    dof rx
    limits (-10.0 170.0)
  end
  begin
     id 4 
     name lfoot
     direction 0.0969116 -0.266263 0.959016   
     length 2.16704   
     axis -90 7.62852e-016 20   XYZ
    dof rx rz
    limits (-45.0 90.0)
           (-70.0 20.0)
  end
  begin
     id 5 
     name ltoes
     direction 1.53563e-011 -4.21779e-011 1   
     length 1.08338   
     axis -90 7.62852e-016 20   XYZ
    dof rx
    limits (-90.0 20.0)
  end
  begin
     id 6 
     name rhipjoint
     direction -0.588228 -0.754791 0.290308   
     length 2.39434  
     axis 0 0 0  XYZ 
  end
  begin
     id 7 
     name rfemur
     direction -0.34202 -0.939693 0   
     length 7.45207   
     axis 0 0 -20   XYZ
    dof rx ry rz
    limits (-160.0 20.0)
           (-70.0 70.0)
           (-70.0 60.0)
  end
  begin
     id 8 
     name rtibia
     direction -0.34202 -0.939693 0   
     length 8.03565   
     axis 0 0 -20   XYZ
    dof rx
    limits (-10.0 170.0)
 end
 begin
     id 9 
     name rfoot
     direction -0.107009 -0.294004 0.949795   
     length 2.11509  
     axis -90 -7.62852e-016 -20   XYZ
    dof rx rz
    limits (-45.0 90.0)
           (-20.0 70.0)
  end
  begin
     id 10 
     name rtoes
     direction -1.53533e-011 -4.22004e-011 1   
     length 1.05493   
     axis -90 -7.62852e-016 -20   XYZ
    dof rx
    limits (-90.0 20.0)
  end
  begin
     id 11 
     name lowerback
     direction -0.0115208 0.997969 -0.0626515   
     length 2.03153   
     axis 0 0 0   XYZ
    dof rx ry rz
    limits (-20.0 45.0)
           (-30.0 30.0)
           (-30.0 30.0)
  end
  begin
     id 12 
     name upperback
     direction -0.00423475 0.999974 -0.00583614   
     length 2.03619   
     axis 0 0 0   XYZ
    dof rx ry rz
    limits (-20.0 45.0)
           (-30.0 30.0)
           (-30.0 30.0)
  end
  begin
     id 13 
     name thorax
     direction 0.00289429 0.999728 0.0231573   
     length 2.03921   
     axis 0 0 0   XYZ
    dof rx ry rz
    limits (-20.0 45.0)
           (-30.0 30.0)
           (-30.0 30.0)
  end
  begin
     id 14 
     name lowerneck
     direction 0.0188995 0.987777 0.154721   
     length 1.78836   
     axis 0 0 0   XYZ
    dof rx ry rz
    limits (-20.0 45.0)
           (-30.0 30.0)
           (-30.0 30.0)
  end
  begin
     id 15 
     name upperneck
     direction -0.00612612 0.992995 -0.118   
     length 1.81789   
     axis 0 0 0   XYZ
    dof rx ry rz
    limits (-20.0 45.0)
           (-30.0 30.0)
           (-30.0 30.0)
  end
  begin
     id 16
     name head
     direction -0.00420226 0.998397 -0.0564482  
     length 1.82234  
     axis 0 0 0   XYZ
    dof rx ry rz
    limits (-20.0 45.0)
           (-30.0 30.0)
           (-30.0 30.0)
  end
  begin
     id 17 
     name lclavicle
     direction 0.916488 0.396539 0.0529676  
     length 3.51732  
     axis 0 0 0   XYZ
    dof ry rz
    limits (-20.0 10.0)
           (0.0 20.0)
  end
  begin
     id 18 
     name lhumerus
     direction 1 -4.4896e-011 8.36962e-028   
     length 5.45077   
     axis 180 -30 -90   XYZ
    dof rx ry rz
    limits (-60.0 90.0)
           (-90.0 90.0)
           (-90.0 90.0)
  end
  begin
     id 19
     name lradius
     direction 1 -4.48962e-011 3.01407e-027   
     length 3.05488   
     axis 180 -30 -90   XYZ
    dof rx
    limits (-10.0 170.0)
  end
  begin
     id 20
     name lwrist
     direction 1 -4.49002e-011 4.72961e-027   
     length 1.52744   
     axis -2.72261e-015 90 90   XYZ
    dof ry
    limits (-180.0 0.0)
 end
  begin
     id 21 
     name lhand
     direction 1 -4.4899e-011 9.45681e-027   
     length 0.638818   
     axis -6.0311e-015 90 90   XYZ
    dof rx rz
    limits (-90.0 90.0)
           (-45.0 45.0)
  end
  begin
     id 22 
     name lfingers
     direction 1 -4.48871e-011 1.88632e-026   
     length 0.515032   
     axis -1.20625e-014 90 90   XYZ
    dof rx
    limits (0.0 90.0)
  end
  begin
     id 23
     name lthumb
     direction 0.707107 -6.34964e-011 0.707107   
     length 0.739485   
     axis -90 45 6.32835e-014   XYZ
    dof rx rz
    limits (-45.0 45.0)
           (-45.0 45.0)
  end
  begin
     id 24 
     name rclavicle
     direction -0.949427 0.303202 0.0815894   
     length 3.76167  
     axis 0 0 0   XYZ 
    dof ry rz
    limits (-10.0 20.0)
           (-20.0 0.0)
  end
  begin
     id 25 
     name rhumerus
     direction -1 -4.48971e-011 -6.43969e-018  
     length 4.88702   
     axis 180 30 90   XYZ
    dof rx ry rz
    limits (-90.0 60.0)
           (-90.0 90.0)
           (-90.0 90.0)
  end
  begin
     id 26 
     name rradius
     direction -1 -4.48987e-011 5.46662e-027   
     length 3.22603   
     axis 180 30 90   XYZ
    dof rx
    limits (-10.0 170.0)
  end
  begin
     id 27 
     name rwrist
     direction -1 -4.48956e-011 4.72476e-027   
     length 1.61302   
     axis -2.72261e-015 -90 -90   XYZ
    dof ry
    limits (-180.0 0.0)
  end
  begin
     id 28
     name rhand
     direction -1 -4.4889e-011 9.43571e-027   
     length 0.716293   
     axis -6.0311e-015 -90 -90   XYZ
    dof rx rz
    limits (-90.0 90.0)
           (-45.0 45.0)
  end
  begin
     id 29
     name rfingers
     direction -1 -4.48887e-011 1.88701e-026   
     length 0.577494   
     axis -1.20625e-014 -90 -90   XYZ
    dof rx
    limits (0.0 90.0)
  end
  begin
     id 30
     name rthumb
     direction -0.707107 -6.34825e-011 0.707107   
     length 0.829169   
     axis -90 -45 -6.32835e-014   XYZ
    dof rx rz
    limits (-45.0 45.0)
           (-45.0 45.0)
  end
:hierarchy
  begin
    root lhipjoint rhipjoint lowerback
    lhipjoint lfemur
    lfemur ltibia
    ltibia lfoot
    lfoot ltoes
    rhipjoint rfemur
    rfemur rtibia
    rtibia rfoot
    rfoot rtoes
    lowerback upperback
    upperback thorax
    thorax lowerneck lclavicle rclavicle
    lowerneck upperneck
    upperneck head
    lclavicle lhumerus
    lhumerus lradius
    lradius lwrist
    lwrist lhand lthumb
    lhand lfingers
    rclavicle rhumerus
    rhumerus rradius
    rradius rwrist
    rwrist rhand rthumb
    rhand rfingers
  end

#!OML:ASF F:\VICON\USERDATA\INSTALL\rory3\rory3.ASF
:FULLY-SPECIFIED
:DEGREES
677
root 1.55267 18.551 0.749904 49.0943 87.3955 36.0904
lowerback -10.2089 2.2232 1.57715
upperback -3.56547 2.98104 -2.08513
thorax 2.1976 1.5298 -2.68766
lowerneck -10.4772 13.3989 12.6529
upperneck 19.9852 20.6189 -14.9079
head 11.1186 9.34402 -4.2649
rclavicle 4.89507e-015 7.35503e-015
rhumerus -41.5887 -1.53335 -81.7955
rradius 48.2467
rwrist -164.784
rhand -28.3273 -6.2979
rfingers 7.12502
rthumb -1.70207 -36.2709
lclavicle 4.89507e-015 7.35503e-015
lhumerus -77.1916 -52.2997 97.2206
lradius 100.827
lwrist 183.661
lhand -18.9672 -5.97669
lfingers 7.12502
lthumb 7.33685 23.8761
rfemur -8.99464 -9.1576 17.0172
rtibia 2.22639e-014
rfoot -1.91332 11.7105
rtoes -8.61898
lfemur -15.0201 8.10271 -19.3354
ltibia 14.8272
lfoot -12.4359 -0.386665
ltoes -26.6813
678
root 1.55146 18.5504 0.754789 49.6274 87.5116 36.61
lowerback -10.1825 2.29539 1.64783
upperback -3.54521 3.07205 -2.15281
thorax 2.21676 1.57517 -2.78687
lowerneck -10.0335 13.7072 12.75
upperneck 19.683 21.101 -15.0703
head 11.032 9.591 -4.26691
rclavicle 1.73253e-014 -7.95139e-016
rhumerus -41.6498 -1.52908 -81.8963
rradius 48.2523
rwrist -164.895
rhand -28.3091 -6.17767
rfingers 7.12502
rthumb -1.68444 -36.1508
lclavicle 1.73253e-014 -7.95139e-016
lhumerus -76.9724 -52.6105 97.0532
lradius 100.849
lwrist 183.796
lhand -18.9796 -6.06125
lfingers 7.12502
lthumb 7.32487 23.792
rfemur -8.99337 -9.24547 17.1177
rtibia -1.59028e-015
rfoot -1.94179 11.7546
rtoes -8.57286
lfemur -15.0448 8.08778 -19.2474
ltibia 14.8272
lfoot -12.401 -0.476958
ltoes -26.4619
679
root 1.55132 18.5498 0.758587 51.4411 87.5922 38.3958
lowerback -10.1806 2.37525 1.69391
upperback -3.5299 3.17802 -2.27246
thorax 2.24723 1.62851 -2.92354
lowerneck -9.73356 13.9913 12.9501
upperneck 19.5679 21.5505 -15.2197
head 11.0491 9.81739 -4.27583
rclavicle 4.1049e-014 -9.93923e-015
rhumerus -41.7079 -1.73608 -81.9634
rradius 48.3068
rwrist -164.596
rhand -28.2768 -6.30056
rfingers 7.12502
rthumb -1.65326 -36.2739
lclavicle 4.1049e-014 -9.93923e-015
lhumerus -76.8135 -52.9774 96.8738
lradius 100.909
lwrist 183.885
lhand -18.8271 -6.10136
lfingers 7.12502
lthumb 7.47207 23.7467
rfemur -9.01453 -9.35446 17.1461
rtibia 1.90833e-014
rfoot -1.97741 11.7643
rtoes -8.49971
lfemur -15.0982 8.08299 -19.2415
ltibia 14.8254
lfoot -12.3692 -0.58552
ltoes -26.4465
680
root 1.55321 18.5501 0.761546 53.2159 87.613 40.1594
lowerback -10.1863 2.4633 1.69064
upperback -3.50976 3.30002 -2.39891
thorax 2.28639 1.69014 -3.03702
lowerneck -9.49487 14.2437 13.2304
upperneck 19.5618 21.9883 -15.4554
head 11.1404 10.0306 -4.32305
rclavicle -6.25551e-015 2.28602e-014
rhumerus -41.7435 -1.95046 -82.0261
rradius 48.3517
rwrist -164.087
rhand -28.2402 -6.65966
rfingers 7.12502
rthumb -1.61787 -36.6333
lclavicle -6.25551e-015 2.28602e-014
lhumerus -76.855 -53.3165 96.8396
lradius 101.029
lwrist 183.94
lhand -18.7252 -6.12432
lfingers 7.12502
lthumb 7.57036 23.7202
rfemur -9.01525 -9.4261 17.1204
rtibia -1.59028e-015
rfoot -1.95096 11.7507
rtoes -8.32312
lfemur -15.1091 8.09258 -19.2774
ltibia 14.8338
lfoot -12.3583 -0.672034
ltoes -26.5752
681
root 1.55234 18.5506 0.76707 54.3347 87.6357 41.2796
lowerback -10.1549 2.53212 1.66329
upperback -3.48696 3.39714 -2.48312
thorax 2.30295 1.73895 -3.09759
lowerneck -9.18601 14.4918 13.3938
upperneck 19.4301 22.4206 -15.6863
head 11.1582 10.2425 -4.35749
rclavicle -9.24349e-015 9.54166e-015
rhumerus -41.7092 -1.96431 -82.105
rradius 48.3019
rwrist -163.905
rhand -28.2612 -6.82641
rfingers 7.12502
rthumb -1.63817 -36.7999
lclavicle -9.24349e-015 9.54166e-015
lhumerus -76.7355 -53.5376 96.7496
lradius 101.082
lwrist 183.924
lhand -18.757 -5.80173
lfingers 7.12502
lthumb 7.53971 24.0439
rfemur -9.00664 -9.47409 17.1231
rtibia 3.57812e-014
rfoot -1.94955 11.7158
rtoes -8.36863
lfemur -15.1324 8.02089 -19.2651
ltibia 14.8439
lfoot -12.3937 -0.624849
ltoes -26.5559
682
root 1.55288 18.5499 0.774828 54.7754 87.7312 41.7005
lowerback -10.0967 2.59978 1.69783
upperback -3.49422 3.48599 -2.53409
thorax 2.27455 1.78304 -3.16148
lowerneck -8.95798 14.7452 13.4785
upperneck 19.4214 22.872 -15.8314
head 11.2195 10.4572 -4.34064
rclavicle -7.24943e-015 1.15295e-014
rhumerus -41.7817 -1.9208 -82.1932
rradius 48.2786
rwrist -163.913
rhand -28.2609 -6.82963
rfingers 7.12502
rthumb -1.63788 -36.8031
lclavicle -7.24943e-015 1.15295e-014
lhumerus -76.6488 -53.7528 96.7417
lradius 101.099
lwrist 183.825
lhand -18.8151 -5.45204
lfingers 7.12502
lthumb 7.48362 24.3956
rfemur -9.00864 -9.53795 17.2225
rtibia -3.97569e-015
rfoot -1.9488 11.7319
rtoes -8.22284
lfemur -15.1952 7.90688 -19.1664
ltibia 14.8854
lfoot -12.3935 -0.588749
ltoes -26.6432
683
root 1.55092 18.5487 0.779986 56.9844 87.826 43.8759
lowerback -9.97939 2.65244 1.68023
upperback -3.56011 3.56208 -2.59494
thorax 2.14981 1.82014 -3.21228
lowerneck -8.70933 14.9736 13.5937
upperneck 19.5008 23.2931 -15.924
head 11.3017 10.6638 -4.31705
rclavicle 5.26158e-015 -7.95139e-015
rhumerus -42.0024 -1.85487 -82.2886
rradius 48.3266
rwrist -163.881
rhand -28.0702 -6.85944
rfingers 7.12502
rthumb -1.45371 -36.8342
lclavicle 5.26158e-015 -7.95139e-015
lhumerus -76.7346 -53.9652 96.8725
lradius 101.169
lwrist 183.748
lhand -18.9622 -5.54392
lfingers 7.12502
lthumb 7.34168 24.3087
rfemur -9.02867 -9.66036 17.269
rtibia 1.59028e-015
rfoot -1.88796 11.7397
rtoes -7.75301
lfemur -15.2829 7.84329 -19.139
ltibia 14.9349
lfoot -12.3566 -0.605559
ltoes -26.8613
684
root 1.55027 18.5501 0.784119 56.6976 87.9823 43.6004
lowerback -9.86985 2.7522 1.79156
upperback -3.59277 3.68691 -2.64874
thorax 2.07462 1.88137 -3.32129
lowerneck -8.41382 15.1774 13.794
upperneck 19.4753 23.6711 -16.1043
head 11.3546 10.8549 -4.34726
rclavicle 3.18863e-014 -1.47101e-014
rhumerus -42.1679 -1.77033 -82.444
rradius 48.3112
rwrist -163.79
rhand -27.7273 -6.95224
rfingers 7.12502
rthumb -1.12256 -36.929
lclavicle 3.18863e-014 -1.47101e-014
lhumerus -76.8982 -54.2713 97.0422
lradius 101.254
lwrist 183.741
lhand -18.8556 -5.60683
lfingers 7.12502
lthumb 7.44452 24.2422
rfemur -8.99828 -9.73117 17.4285
rtibia 1.59028e-015
rfoot -1.93437 11.7845
rtoes -7.86899
lfemur -15.3036 7.84055 -18.9946
ltibia 14.9863
lfoot -12.3896 -0.581379
ltoes -27.2547
685
root 1.55153 18.5511 0.789189 58.9042 88.0525 45.8564
lowerback -9.79714 2.80595 1.76029
upperback -3.56424 3.7639 -2.72578
thorax 2.07318 1.91993 -3.3769
lowerneck -8.15077 15.386 13.8928
upperneck 19.368 24.0296 -16.2367
head 11.3601 11.0339 -4.34865
rclavicle -5.00689e-015 -4.77083e-015
rhumerus -42.2566 -1.50896 -82.711
rradius 48.2591
rwrist -163.559
rhand -26.8812 -7.21165
rfingers 7.12502
rthumb -0.305392 -37.1912
lclavicle -5.00689e-015 -4.77083e-015
lhumerus -76.8436 -54.5201 97.0275
lradius 101.308
lwrist 183.763
lhand -18.695 -5.6451
lfingers 7.12502
lthumb 7.59956 24.1984
rfemur -8.91199 -9.83062 17.4503
rtibia 2.46493e-014
rfoot -2.01293 11.8406
rtoes -8.3473
lfemur -15.2561 7.81937 -18.9693
ltibia 15.0048
lfoot -12.4354 -0.63698
ltoes -27.3154
686
root 1.55184 18.55 0.795951 62.6957 88.1107 49.686
lowerback -9.74276 2.83622 1.67273
upperback -3.5037 3.81459 -2.80746
thorax 2.11005 1.94596 -3.40718
lowerneck -8.00108 15.5947 13.8319
upperneck 19.2396 24.3417 -16.2257
head 11.3272 11.1847 -4.28083
rclavicle 6.70898e-015 -3.57812e-015
rhumerus -42.2445 -1.63402 -82.7232
rradius 48.2747
rwrist -163.861
rhand -26.9857 -7.25266
rfingers 7.12502
rthumb -0.406282 -37.232
lclavicle 6.70898e-015 -3.57812e-015
lhumerus -76.6032 -54.7636 96.8681
lradius 101.329
lwrist 183.782
lhand -18.7092 -5.60893
lfingers 7.12502
lthumb 7.58585 24.235
rfemur -8.84304 -9.96687 17.4454
rtibia -3.18055e-015
rfoot -2.03498 11.8262
rtoes -8.1779
lfemur -15.2354 7.90319 -19.0029
ltibia 14.9965
lfoot -12.4226 -0.778075
ltoes -27.7034
687
root 1.55341 18.55 0.801122 65.9623 88.1491 52.9699
lowerback -9.72106 2.89024 1.62631
upperback -3.4496 3.89381 -2.90285
thorax 2.16379 1.98649 -3.46999
lowerneck -7.95443 15.8236 13.8233
upperneck 19.2736 24.696 -16.1821
head 11.3837 11.3482 -4.19036
rclavicle 5.65294e-015 8.34896e-015
rhumerus -42.1908 -1.60796 -82.8547
rradius 48.2405
rwrist -163.892
rhand -26.8319 -7.23551
rfingers 7.12502
rthumb -0.257728 -37.2151
lclavicle 5.65294e-015 8.34896e-015
lhumerus -76.4511 -55.074 96.7691
lradius 101.394
lwrist 183.855
lhand -18.7379 -5.65775
lfingers 7.12502
lthumb 7.55816 24.1872
rfemur -8.80866 -10.0791 17.433
rtibia -5.56597e-015
rfoot -1.99049 11.8264
rtoes -7.9434
lfemur -15.2229 7.86991 -19.017
ltibia 14.9902
lfoot -12.3955 -0.817178
ltoes -27.8054
688
root 1.55314 18.5493 0.806898 67.8791 88.1839 54.9269
lowerback -9.62054 2.94763 1.58278
upperback -3.42805 3.97698 -2.98173
thorax 2.13987 2.028 -3.52167
lowerneck -7.79644 16.0244 13.9311
upperneck 19.2473 25.042 -16.2911
head 11.4364 11.5136 -4.17745
rclavicle -3.67752e-015 0
rhumerus -42.1767 -1.53136 -82.9976
rradius 48.1993
rwrist -163.932
rhand -27.3276 -7.02515
rfingers 7.12502
rthumb -0.73652 -37.0036
lclavicle -3.67752e-015 0
lhumerus -76.2983 -55.282 96.6508
lradius 101.434
lwrist 183.949
lhand -18.8588 -5.70038
lfingers 7.12502
lthumb 7.44146 24.1487
rfemur -8.75941 -10.1454 17.4472
rtibia -1.51076e-014
rfoot -1.96095 11.8278
rtoes -7.69431
lfemur -15.18 7.69098 -18.968
ltibia 14.9896
lfoot -12.4003 -0.712446
ltoes -27.6351
689
root 1.54978 18.5482 0.812345 70.5357 88.3093 57.5916
lowerback -9.53832 2.96505 1.59947
upperback -3.42657 4.00016 -3.02216
thorax 2.1019 2.03921 -3.57438
lowerneck -7.57502 16.2225 13.9822
upperneck 19.1812 25.3745 -16.352
head 11.4442 11.6789 -4.14937
rclavicle -1.81764e-014 3.57812e-015
rhumerus -42.2397 -1.27485 -83.218
rradius 48.2256
rwrist -163.879
rhand -28.193 -6.72334
rfingers 7.12502
rthumb -1.57232 -36.6973
lclavicle -1.81764e-014 3.57812e-015
lhumerus -76.1049 -55.4035 96.4917
lradius 101.436
lwrist 184.094
lhand -19.0427 -5.7546
lfingers 7.12502
lthumb 7.26392 24.1007
rfemur -8.74414 -10.2599 17.558
rtibia -1.35174e-014
rfoot -1.99601 11.8838
rtoes -7.6851
lfemur -15.2111 7.73554 -18.8724
ltibia 15.0023
lfoot -12.3654 -0.8597
ltoes -27.6138
690
root 1.54706 18.5497 0.817004 73.9721 88.4507 61.0122
lowerback -9.46285 3.01694 1.6429
upperback -3.43468 4.06707 -3.06614
thorax 2.06312 2.07225 -3.64055
lowerneck -7.34818 16.4053 14.0321
upperneck 19.0812 25.6845 -16.4351
head 11.4384 11.8344 -4.13416
rclavicle -3.34331e-014 -1.19271e-014
rhumerus -42.3312 -1.15679 -83.3899
rradius 48.2507
rwrist -163.733
rhand -28.5428 -6.40043
rfingers 7.12502
rthumb -1.91018 -36.3716
lclavicle -3.34331e-014 -1.19271e-014
lhumerus -76.0281 -55.6182 96.4354
lradius 101.5
lwrist 184.074
lhand -19.2726 -5.72868
lfingers 7.12502
lthumb 7.04205 24.1342
rfemur -8.76116 -10.3903 17.6869
rtibia -1.66979e-014
rfoot -2.02066 11.8994
rtoes -7.70287
lfemur -15.2747 7.67654 -18.7622
ltibia 15.0206
lfoot -12.3672 -0.912853
ltoes -27.6788
